<svg width="58" height="58" viewBox="0 0 58 58" fill="none" xmlns="http://www.w3.org/2000/svg">
<path d="M10.695 0.345703C4.89838 0.345703 0.230957 5.01312 0.230957 10.8097V47.1894C0.230957 52.986 4.89838 57.6534 10.695 57.6534H30.4124V35.2497H24.4882V27.1836H30.4124V20.2924C30.4124 14.8782 33.9127 9.90714 41.976 9.90714C45.2407 9.90714 47.6549 10.2206 47.6549 10.2206L47.465 17.753C47.465 17.753 45.0029 17.7297 42.3162 17.7297C39.4085 17.7297 38.9423 19.0694 38.9423 21.2935V27.1837H47.696L47.3146 35.2497H38.9423V57.6535H47.0746C52.8712 57.6535 57.5386 52.986 57.5386 47.1894V10.8098C57.5386 5.01318 52.8712 0.34576 47.0746 0.34576H10.6949L10.695 0.345703Z" fill="white"/>
</svg>
