<svg width="58" height="58" viewBox="0 0 58 58" fill="none" xmlns="http://www.w3.org/2000/svg">
<path d="M37.9208 0.345703H20.3388C4.28122 0.345703 0.46167 4.16526 0.46167 20.1942V37.7762C0.46167 53.8309 4.25257 57.6533 20.3102 57.6533H37.8922C53.9469 57.6533 57.7693 53.8624 57.7693 37.8048V20.2229C57.7693 4.16526 53.9784 0.345703 37.9208 0.345703ZM46.7261 41.2347H42.5455C40.9638 41.2347 40.4882 39.9539 37.6515 37.1171C35.1758 34.7303 34.1299 34.4323 33.5024 34.4323C32.637 34.4323 32.3992 34.6701 32.3992 35.865V39.6244C32.3992 40.6416 32.0697 41.2376 29.4135 41.2376C26.8356 41.0643 24.3358 40.2811 22.1199 38.9525C19.9041 37.6239 18.0355 35.7878 16.6683 33.5956C13.4223 29.5554 11.1637 24.8136 10.0722 19.7472C10.0722 19.1197 10.31 18.5523 11.5049 18.5523H15.6826C16.7571 18.5523 17.1439 19.0309 17.5651 20.134C19.5938 26.1055 23.0552 31.2976 24.4592 31.2976C24.9979 31.2976 25.2329 31.0597 25.2329 29.7159V23.5668C25.0552 20.7615 23.5652 20.5237 23.5652 19.5094C23.5844 19.2418 23.707 18.9923 23.907 18.8136C24.1071 18.6349 24.3689 18.5412 24.6369 18.5523H31.2044C32.1012 18.5523 32.3992 18.9993 32.3992 20.0739V28.372C32.3992 29.2689 32.786 29.5669 33.0554 29.5669C33.5941 29.5669 34.0096 29.2689 34.9953 28.2832C37.1124 25.7013 38.8421 22.8248 40.13 19.7443C40.2617 19.3743 40.5107 19.0575 40.8393 18.8423C41.1678 18.6271 41.5577 18.5252 41.9495 18.5523H46.1301C47.3823 18.5523 47.6488 19.1799 47.3823 20.0739C45.8622 23.4792 43.9813 26.7116 41.7719 29.7159C41.322 30.4036 41.1415 30.7617 41.7719 31.5669C42.1874 32.1944 43.6516 33.4179 44.6373 34.5813C46.0697 36.0101 47.2592 37.6632 48.1588 39.4754C48.517 40.6387 47.9181 41.2376 46.7261 41.2376V41.2347Z" fill="white"/>
</svg>
