<svg width="58" height="58" viewBox="0 0 58 58" fill="none" xmlns="http://www.w3.org/2000/svg">
<path d="M57.3076 13.3832C57.2754 12.147 57.1798 10.9132 57.0211 9.68685C56.8071 8.61269 56.4506 7.57193 55.9609 6.59223C55.4488 5.52948 54.761 4.56076 53.9265 3.72685C53.0843 2.90221 52.1173 2.21562 51.0611 1.69243C50.0801 1.21232 49.0394 0.865407 47.9665 0.660895C46.7518 0.478942 45.5268 0.37367 44.2988 0.345703H13.0375C11.8013 0.3779 10.5675 0.473538 9.34115 0.632241C8.26698 0.846195 7.22623 1.20275 6.24653 1.69243C5.18378 2.20458 4.21505 2.89238 3.38115 3.72685C2.55651 4.56902 1.86992 5.53604 1.34673 6.59223C0.866618 7.57324 0.519704 8.61398 0.315192 9.68685C0.133238 10.9016 0.0279664 12.1266 0 13.3545V44.6159C0.0321966 45.8521 0.127835 47.0858 0.286538 48.3122C0.500492 49.3864 0.857045 50.4271 1.34673 51.4068C1.85888 52.4696 2.54667 53.4383 3.38115 54.2722C4.22332 55.0968 5.19034 55.7834 6.24653 56.3066C7.22753 56.7867 8.26828 57.1336 9.34115 57.3381C10.5559 57.5201 11.7809 57.6254 13.0088 57.6533H44.2701C45.5064 57.6211 46.7401 57.5255 47.9665 57.3668C49.0407 57.1528 50.0814 56.7963 51.0611 56.3066C52.1239 55.7945 53.0926 55.1067 53.9265 54.2722C54.7511 53.43 55.4377 52.463 55.9609 51.4068C56.441 50.4258 56.7879 49.3851 56.9924 48.3122C57.1744 47.0975 57.2797 45.8725 57.3076 44.6445V14.9018V13.3832ZM29.3129 49.0572C25.8717 49.0402 22.4908 48.1531 19.4846 46.4784L8.59615 49.3437L11.4615 38.6845C9.61368 35.5797 8.62476 32.0394 8.59615 28.4264C8.60755 24.366 9.82024 20.3997 12.0815 17.0271C14.3427 13.6545 17.5514 11.0265 21.3033 9.47399C25.0553 7.92149 29.1828 7.51394 33.1659 8.30269C37.149 9.09144 40.8097 11.0412 43.6868 13.9064C46.564 16.7716 48.529 20.4242 49.3343 24.404C50.1396 28.3838 49.7492 32.5129 48.2123 36.2713C46.6754 40.0297 44.0607 43.2492 40.6976 45.5245C37.3344 47.7997 33.3732 49.0289 29.3129 49.0572ZM29.3129 11.4347C26.275 11.4695 23.3006 12.3086 20.6925 13.8667C18.0844 15.4248 15.9358 17.6461 14.4653 20.3046C12.9948 22.9631 12.2551 25.9637 12.3214 29.001C12.3877 32.0384 13.2576 35.0039 14.8427 37.5957L15.2438 38.2547L13.5246 44.5299L20.0577 42.7533L20.6881 43.1259C23.2943 44.661 26.2595 45.4814 29.2842 45.5041C33.8439 45.5041 38.2168 43.6928 41.441 40.4686C44.6652 37.2444 46.4765 32.8715 46.4765 28.3118C46.4765 23.7521 44.6652 19.3792 41.441 16.155C38.2168 12.9309 33.8439 11.1195 29.2842 11.1195L29.3129 11.4347ZM39.3417 35.8478C38.9664 36.4738 38.4639 37.014 37.8666 37.4336C37.2694 37.8531 36.5908 38.1426 35.8746 38.2834C34.8045 38.479 33.7028 38.4101 32.6654 38.0828C31.6893 37.7776 30.7324 37.414 29.8 36.9939C26.2576 35.2164 23.2366 32.5509 21.0319 29.2574C19.8338 27.7315 19.1069 25.8893 18.9402 23.9564C18.9231 23.1535 19.075 22.356 19.386 21.6156C19.697 20.8751 20.1601 20.2083 20.7454 19.6584C20.9178 19.4629 21.1292 19.3058 21.3662 19.1972C21.6031 19.0886 21.8601 19.031 22.1207 19.028H22.9231C23.2382 19.028 23.6681 19.028 24.0692 19.9163C24.4704 20.8045 25.5306 23.4693 25.6738 23.7272C25.7442 23.8647 25.7809 24.0169 25.7809 24.1714C25.7809 24.3258 25.7442 24.478 25.6738 24.6155C25.5472 24.9269 25.3732 25.2168 25.1581 25.4751C24.9002 25.7903 24.6136 26.1628 24.3844 26.392C24.1552 26.6213 23.8686 26.9078 24.1552 27.4236C24.9348 28.7393 25.8998 29.9359 27.0205 30.9766C28.241 32.055 29.6364 32.9175 31.1467 33.5268C31.6625 33.7847 31.9777 33.7561 32.2642 33.5268C32.5507 33.2976 33.5536 32.0368 33.8975 31.5211C34.2413 31.0053 34.5852 31.0912 35.0436 31.2632C35.5021 31.4351 38.0523 32.6672 38.568 32.9251C39.0838 33.183 39.399 33.2976 39.5423 33.5268C39.6665 34.2768 39.5975 35.046 39.3417 35.7618V35.8478Z" fill="white"/>
</svg>
