<svg width="58" height="58" viewBox="0 0 58 58" fill="none" xmlns="http://www.w3.org/2000/svg">
<path d="M57.8155 17.2603C57.7833 14.8541 57.3321 12.4718 56.482 10.22C55.7449 8.32058 54.6189 6.59559 53.1761 5.15522C51.7334 3.71485 50.0055 2.59077 48.1029 1.8548C45.8764 1.02037 43.5241 0.569181 41.1463 0.520441C38.0849 0.383828 37.1143 0.345703 29.343 0.345703C21.5717 0.345703 20.5757 0.345703 17.5365 0.520441C15.1598 0.569539 12.8087 1.02073 10.5831 1.8548C8.68025 2.59026 6.95212 3.71415 5.50928 5.15459C4.06645 6.59503 2.94067 8.32029 2.204 10.22C1.3665 12.4412 0.915539 14.7889 0.870594 17.1618C0.733753 20.2213 0.692383 21.1903 0.692383 28.9487C0.692383 36.7071 0.692383 37.6983 0.870594 40.7355C0.918329 43.112 1.36704 45.4566 2.204 47.6838C2.94191 49.5829 4.06852 51.3074 5.51184 52.7473C6.95516 54.1871 8.68345 55.3105 10.5863 56.0458C12.8058 56.9137 15.1573 57.3972 17.5397 57.4754C20.6043 57.612 21.5749 57.6533 29.3462 57.6533C37.1175 57.6533 38.1136 57.6533 41.1527 57.4754C43.5304 57.4287 45.8828 56.9785 48.1093 56.1442C50.0114 55.4074 51.7388 54.2831 53.1814 52.8428C54.6241 51.4025 55.7504 49.678 56.4884 47.7791C57.3254 45.5551 57.7741 43.2105 57.8218 40.8309C57.9587 37.7745 58 36.8055 58 29.044C57.9937 21.2856 57.9937 20.3008 57.8155 17.2603ZM29.3239 43.6203C21.1962 43.6203 14.612 37.047 14.612 28.9328C14.612 20.8186 21.1962 14.2453 29.3239 14.2453C33.2258 14.2453 36.9678 15.7927 39.7269 18.5472C42.4859 21.3016 44.0359 25.0374 44.0359 28.9328C44.0359 32.8282 42.4859 36.564 39.7269 39.3184C36.9678 42.0729 33.2258 43.6203 29.3239 43.6203ZM44.6215 17.1269C42.7216 17.1269 41.1909 15.5955 41.1909 13.702C41.1909 13.2525 41.2796 12.8073 41.4519 12.392C41.6242 11.9767 41.8768 11.5993 42.1952 11.2814C42.5136 10.9635 42.8916 10.7114 43.3077 10.5393C43.7237 10.3673 44.1696 10.2788 44.6199 10.2788C45.0702 10.2788 45.516 10.3673 45.9321 10.5393C46.3481 10.7114 46.7261 10.9635 47.0445 11.2814C47.3629 11.5993 47.6155 11.9767 47.7878 12.392C47.9601 12.8073 48.0488 13.2525 48.0488 13.702C48.0488 15.5955 46.5149 17.1269 44.6215 17.1269Z" fill="white"/>
<path d="M29.3238 38.4744C34.6017 38.4744 38.8803 34.2029 38.8803 28.9337C38.8803 23.6646 34.6017 19.393 29.3238 19.393C24.0458 19.393 19.7672 23.6646 19.7672 28.9337C19.7672 34.2029 24.0458 38.4744 29.3238 38.4744Z" fill="white"/>
</svg>
